<svg id="Camada_1" data-name="Camada 1" xmlns="http://www.w3.org/2000/svg" viewBox="0 0 258.18 68.95"><title>convertlogowhite</title><path d="M24.63,40.37l6.24-6.24a1.64,1.64,0,0,0,.5-1.2,1.9,1.9,0,0,0-.44-1.13l-6.29-6.3L39,11.1A1.78,1.78,0,0,0,39.63,9a1.35,1.35,0,0,0-1.27-.78H3.89c-.69,0-1.31,0-1.68.78a2,2,0,0,0,.42,2.06L17.09,25.5l-6.24,6.25a1.79,1.79,0,0,0-.49,1.18,2.52,2.52,0,0,0,.51,1.21l6.22,6.22L2.7,54.77a1.66,1.66,0,0,0-.36,1.81,2,2,0,0,0,1.77,1H37.84a1.56,1.56,0,0,0,1.54-1,1.76,1.76,0,0,0-.5-2ZM12.7,13.57H29l-8.16,8.17Zm4.36,19.36,3.81-3.8,3.8,3.8-3.8,3.81ZM12.7,52.3l8.16-8.18L29,52.3Z" transform="translate(-2.06 -8.24)" style="fill:#fff"/><path d="M63.67,27.53a6.61,6.61,0,0,1,3.26-.79,6.23,6.23,0,0,1,4.95,2.31l.47.55,4.27-3.94-.43-.52a11,11,0,0,0-4.11-3.06,14.2,14.2,0,0,0-11.79.48,11.57,11.57,0,0,0-4.5,4.28,12.41,12.41,0,0,0,0,12.34,11.57,11.57,0,0,0,4.5,4.28A13.3,13.3,0,0,0,66.65,45a13.46,13.46,0,0,0,5.42-1.05,10.86,10.86,0,0,0,4.12-3.1l.42-.51-4.26-3.94-.48.55a6.17,6.17,0,0,1-4.94,2.34,6.51,6.51,0,0,1-3.26-.8,5.57,5.57,0,0,1-2.21-2.2,7.12,7.12,0,0,1,0-6.54A5.59,5.59,0,0,1,63.67,27.53Z" transform="translate(-2.06 -8.24)" style="fill:#fff"/><path d="M98.67,22.57a14.19,14.19,0,0,0-12.88,0,11.59,11.59,0,0,0-4.54,4.3,12.3,12.3,0,0,0,0,12.28,11.49,11.49,0,0,0,4.54,4.29,14.13,14.13,0,0,0,12.88,0,11.82,11.82,0,0,0,0-20.86Zm-3.3,15.92a6.58,6.58,0,0,1-6.27,0,5.72,5.72,0,0,1-2.18-2.21,7.12,7.12,0,0,1,0-6.54,5.65,5.65,0,0,1,2.18-2.21,6.58,6.58,0,0,1,6.27,0,5.72,5.72,0,0,1,2.18,2.21,7.12,7.12,0,0,1,0,6.54,5.72,5.72,0,0,1-2.18,2.21Z" transform="translate(-2.06 -8.24)" style="fill:#fff"/><path d="M125.36,33.37l-9.79-12h-5.21V44.62h6.39v-12l9.83,12h5.17V21.4h-6.39Z" transform="translate(-2.06 -8.24)" style="fill:#fff"/><path d="M153.63,33.37l-9.8-12h-5.21V44.62H145v-12l9.83,12H160V21.4h-6.39Z" transform="translate(-2.06 -8.24)" style="fill:#fff"/><path d="M176.68,35.89,170.51,21.4h-7l10,23.22h5.9l10-23.22h-6.54Z" transform="translate(-2.06 -8.24)" style="fill:#fff"/><path d="M199.05,35.52h10.11V30.19H199.05V26.86H210.5V21.4H192.62V44.62H210.9V39.16H199.05Z" transform="translate(-2.06 -8.24)" style="fill:#fff"/><path d="M235.64,34.6A8.16,8.16,0,0,0,236.92,30a7.91,7.91,0,0,0-4.85-7.59,12.77,12.77,0,0,0-5.31-1H216.62V44.62h6.45V38.54h3.57l4.2,6.08H238l-5.19-7.44A7.85,7.85,0,0,0,235.64,34.6Zm-12.57-7.68h3.41a4.65,4.65,0,0,1,3,.82,2.76,2.76,0,0,1,.93,2.28,2.79,2.79,0,0,1-.93,2.26,4.63,4.63,0,0,1-3,.83h-3.41Z" transform="translate(-2.06 -8.24)" style="fill:#fff"/><path d="M239.84,21.4v5.52h7v17.7h6.46V26.92h7V21.4Z" transform="translate(-2.06 -8.24)" style="fill:#fff"/><path d="M164.4,60h5.4a6.36,6.36,0,0,1,3.49.87,5.23,5.23,0,0,1,2,2.34,8,8,0,0,1,.66,3.3,11.72,11.72,0,0,1-.74,4.19,10,10,0,0,1-2,3.34,9.29,9.29,0,0,1-3.11,2.21,9.47,9.47,0,0,1-3.9.79h-5.4Zm2,15.94a7.6,7.6,0,0,0,3.47-.76,7.8,7.8,0,0,0,2.61-2,9.21,9.21,0,0,0,1.64-2.94,10.48,10.48,0,0,0,.56-3.47,7,7,0,0,0-.57-2.91,4.55,4.55,0,0,0-1.72-2,5.23,5.23,0,0,0-2.84-.72h-4.18L162.24,76Z" transform="translate(-2.06 -8.24)" style="fill:#fff"/><path d="M180.91,60h10.58l-.21,1.11h-9.39l-1.41,6.69h8.18l-.24,1.06h-8.16L178.75,76h9.58l-.24,1.1h-10.8Z" transform="translate(-2.06 -8.24)" style="fill:#fff"/><path d="M196.32,77.19a8.41,8.41,0,0,1-3.39-.62,7.51,7.51,0,0,1-2.59-1.92l.84-1a6.09,6.09,0,0,0,.94,1,6.47,6.47,0,0,0,1.2.76,6.24,6.24,0,0,0,1.47.52,8.28,8.28,0,0,0,1.79.18,7.37,7.37,0,0,0,2.73-.46,4.05,4.05,0,0,0,1.81-1.31,3.37,3.37,0,0,0,.65-2.06,2.27,2.27,0,0,0-.5-1.55,3.41,3.41,0,0,0-1.46-.93,21.1,21.1,0,0,0-2.39-.74,21.54,21.54,0,0,1-2.45-.75,3.51,3.51,0,0,1-1.52-1,2.84,2.84,0,0,1-.52-1.8,5,5,0,0,1,.51-2.29,5.17,5.17,0,0,1,1.41-1.75A6.31,6.31,0,0,1,197,60.3a8.83,8.83,0,0,1,2.69-.39,7.79,7.79,0,0,1,1.95.23,5.62,5.62,0,0,1,1.58.67,5.1,5.1,0,0,1,1.22,1.1l-.84,1a3.44,3.44,0,0,0-.7-.78,3.68,3.68,0,0,0-.93-.59,5.15,5.15,0,0,0-1.13-.36,7.8,7.8,0,0,0-4.24.43A4.14,4.14,0,0,0,194.84,63a3.82,3.82,0,0,0-.59,2.08,2,2,0,0,0,.45,1.38,3.07,3.07,0,0,0,1.33.83,20.42,20.42,0,0,0,2.26.66,18.18,18.18,0,0,1,2.65.84A4,4,0,0,1,202.56,70a3.09,3.09,0,0,1,.55,2,4.92,4.92,0,0,1-.53,2.31,4.57,4.57,0,0,1-1.45,1.64,6.82,6.82,0,0,1-2.15,1A10.16,10.16,0,0,1,196.32,77.19Z" transform="translate(-2.06 -8.24)" style="fill:#fff"/><path d="M213.65,60h1l3.19,17H216.6l-1-5.61h-7.74l-3.39,5.61h-1.32Zm1.78,10.42-1.57-8.93-5.38,8.93Z" transform="translate(-2.06 -8.24)" style="fill:#fff"/><path d="M224,60H234.6l-.24,1.11H225l-1.41,6.77h7.89l-.21,1h-7.92l-1.73,8.11h-1.23Z" transform="translate(-2.06 -8.24)" style="fill:#fff"/><path d="M237.91,60h1.22l-3.62,17h-1.22Z" transform="translate(-2.06 -8.24)" style="fill:#fff"/><path d="M246.45,77.19a5.9,5.9,0,0,1-2.67-.57,5.57,5.57,0,0,1-1.9-1.56,7,7,0,0,1-1.13-2.23,9.12,9.12,0,0,1-.37-2.62,10,10,0,0,1,.5-3.13,11,11,0,0,1,1.41-2.82,10.82,10.82,0,0,1,2.1-2.27A9.53,9.53,0,0,1,247,60.47a8,8,0,0,1,2.93-.56,5.79,5.79,0,0,1,2.68.59,5.4,5.4,0,0,1,1.89,1.59,6.64,6.64,0,0,1,1.12,2.24A9.37,9.37,0,0,1,256,67a9.81,9.81,0,0,1-.49,3.1,10.77,10.77,0,0,1-1.39,2.8A11.11,11.11,0,0,1,252,75.12a10,10,0,0,1-2.62,1.52A7.89,7.89,0,0,1,246.45,77.19Zm.22-1.12a6.67,6.67,0,0,0,3.17-.78,9,9,0,0,0,2.57-2.08,9.93,9.93,0,0,0,1.71-2.92,9.14,9.14,0,0,0,.61-3.27,7.84,7.84,0,0,0-.54-2.94,5,5,0,0,0-1.65-2.2,4.58,4.58,0,0,0-2.82-.84,6.75,6.75,0,0,0-3.17.77A8.39,8.39,0,0,0,244,63.89a10.34,10.34,0,0,0-1.73,2.92,9.24,9.24,0,0,0-.62,3.3,7.66,7.66,0,0,0,.55,2.94,5,5,0,0,0,1.67,2.19A4.6,4.6,0,0,0,246.67,76.07Z" transform="translate(-2.06 -8.24)" style="fill:#fff"/><rect x="54.18" y="43.87" width="204" height="1" style="fill:#fff"/></svg>