<svg width="258.18" height="68.95" xmlns="http://www.w3.org/2000/svg">
 <title>connvertlogo</title>

 <g>
  <title>Layer 1</title>
  <path id="svg_1" fill="#151a4e" d="m22.57,32.13l6.24,-6.24a1.64,1.64 0 0 0 0.5,-1.2a1.9,1.9 0 0 0 -0.44,-1.13l-6.29,-6.3l14.36,-14.4a1.78,1.78 0 0 0 0.63,-2.1a1.35,1.35 0 0 0 -1.27,-0.78l-34.47,0c-0.69,0 -1.31,0 -1.68,0.78a2,2 0 0 0 0.42,2.06l14.46,14.44l-6.24,6.25a1.79,1.79 0 0 0 -0.49,1.18a2.52,2.52 0 0 0 0.51,1.21l6.22,6.22l-14.39,14.41a1.66,1.66 0 0 0 -0.36,1.81a2,2 0 0 0 1.77,1l33.73,0a1.56,1.56 0 0 0 1.54,-1a1.76,1.76 0 0 0 -0.5,-2l-14.25,-14.21zm-11.93,-26.8l16.3,0l-8.16,8.17l-8.14,-8.17zm4.36,19.36l3.81,-3.8l3.8,3.8l-3.8,3.81l-3.81,-3.81zm-4.36,19.37l8.16,-8.18l8.14,8.18l-16.3,0z"/>
  <path id="svg_2" fill="#151a4e" d="m61.61,19.29a6.61,6.61 0 0 1 3.26,-0.79a6.23,6.23 0 0 1 4.95,2.31l0.47,0.55l4.27,-3.94l-0.43,-0.52a11,11 0 0 0 -4.11,-3.06a14.2,14.2 0 0 0 -11.79,0.48a11.57,11.57 0 0 0 -4.5,4.28a12.41,12.41 0 0 0 0,12.34a11.57,11.57 0 0 0 4.5,4.28a13.3,13.3 0 0 0 6.36,1.54a13.46,13.46 0 0 0 5.42,-1.05a10.86,10.86 0 0 0 4.12,-3.1l0.42,-0.51l-4.26,-3.94l-0.48,0.55a6.17,6.17 0 0 1 -4.94,2.34a6.51,6.51 0 0 1 -3.26,-0.8a5.57,5.57 0 0 1 -2.21,-2.2a7.12,7.12 0 0 1 0,-6.54a5.59,5.59 0 0 1 2.21,-2.22z"/>
  <path id="svg_3" fill="#151a4e" d="m96.61,14.33a14.19,14.19 0 0 0 -12.88,0a11.59,11.59 0 0 0 -4.54,4.3a12.3,12.3 0 0 0 0,12.28a11.49,11.49 0 0 0 4.54,4.29a14.13,14.13 0 0 0 12.88,0a11.82,11.82 0 0 0 0,-20.86l0,-0.01zm-3.3,15.92a6.58,6.58 0 0 1 -6.27,0a5.72,5.72 0 0 1 -2.18,-2.21a7.12,7.12 0 0 1 0,-6.54a5.65,5.65 0 0 1 2.18,-2.21a6.58,6.58 0 0 1 6.27,0a5.72,5.72 0 0 1 2.18,2.21a7.12,7.12 0 0 1 0,6.54a5.72,5.72 0 0 1 -2.18,2.21z"/>
  <path id="svg_4" fill="#151a4e" d="m123.3,25.13l-9.79,-12l-5.21,0l0,23.25l6.39,0l0,-12l9.83,12l5.17,0l0,-23.22l-6.39,0l0,11.97z"/>
  <path id="svg_5" fill="#151a4e" d="m151.57,25.13l-9.8,-12l-5.21,0l0,23.25l6.38,0l0,-12l9.83,12l5.17,0l0,-23.22l-6.39,0l0.02,11.97z"/>
  <path id="svg_6" fill="#151a4e" d="m174.62,27.65l-6.17,-14.49l-7,0l10,23.22l5.9,0l10,-23.22l-6.54,0l-6.19,14.49z"/>
  <path id="svg_7" fill="#151a4e" d="m196.99,27.28l10.11,0l0,-5.33l-10.11,0l0,-3.33l11.45,0l0,-5.46l-17.88,0l0,23.22l18.28,0l0,-5.46l-11.85,0l0,-3.64z"/>
  <path id="svg_8" fill="#151a4e" d="m233.58,26.36a8.16,8.16 0 0 0 1.28,-4.6a7.91,7.91 0 0 0 -4.85,-7.59a12.77,12.77 0 0 0 -5.31,-1l-10.14,0l0,23.21l6.45,0l0,-6.08l3.57,0l4.2,6.08l7.16,0l-5.19,-7.44a7.85,7.85 0 0 0 2.83,-2.58zm-12.57,-7.68l3.41,0a4.65,4.65 0 0 1 3,0.82a2.76,2.76 0 0 1 0.93,2.28a2.79,2.79 0 0 1 -0.93,2.26a4.63,4.63 0 0 1 -3,0.83l-3.41,0l0,-6.19z"/>
  <path id="svg_9" fill="#151a4e" d="m237.78,13.16l0,5.52l7,0l0,17.7l6.46,0l0,-17.7l7,0l0,-5.52l-20.46,0z"/>
 </g>
</svg>